<mxfile host="app.diagrams.net" modified="2023-10-13T16:26:41.171Z" agent="Mozilla/5.0 (X11; Ubuntu; Linux x86_64; rv:109.0) Gecko/20100101 Firefox/118.0" etag="OTRJw3_cviHOsFBxUYrW" version="22.0.4" type="device">
  <diagram name="Page-1" id="iOarPkrPNDnivgPdAuhk">
    <mxGraphModel dx="1050" dy="566" grid="1" gridSize="10" guides="1" tooltips="1" connect="1" arrows="1" fold="1" page="1" pageScale="1" pageWidth="850" pageHeight="1100" math="0" shadow="0">
      <root>
        <mxCell id="0" />
        <mxCell id="1" parent="0" />
        <mxCell id="aZyy6RtrpkrhqAiJ_Z7c-19" style="edgeStyle=orthogonalEdgeStyle;rounded=0;orthogonalLoop=1;jettySize=auto;html=1;exitX=1;exitY=0.5;exitDx=0;exitDy=0;entryX=0;entryY=0.5;entryDx=0;entryDy=0;shape=link;" edge="1" parent="1" source="aZyy6RtrpkrhqAiJ_Z7c-1" target="aZyy6RtrpkrhqAiJ_Z7c-9">
          <mxGeometry relative="1" as="geometry" />
        </mxCell>
        <mxCell id="aZyy6RtrpkrhqAiJ_Z7c-24" style="edgeStyle=orthogonalEdgeStyle;rounded=0;orthogonalLoop=1;jettySize=auto;html=1;exitX=0.5;exitY=0;exitDx=0;exitDy=0;entryX=0;entryY=0.5;entryDx=0;entryDy=0;shape=link;" edge="1" parent="1" source="aZyy6RtrpkrhqAiJ_Z7c-1" target="aZyy6RtrpkrhqAiJ_Z7c-20">
          <mxGeometry relative="1" as="geometry" />
        </mxCell>
        <mxCell id="aZyy6RtrpkrhqAiJ_Z7c-1" value="Event" style="rounded=0;whiteSpace=wrap;html=1;" vertex="1" parent="1">
          <mxGeometry x="360" y="210" width="120" height="60" as="geometry" />
        </mxCell>
        <mxCell id="aZyy6RtrpkrhqAiJ_Z7c-17" style="edgeStyle=orthogonalEdgeStyle;rounded=0;orthogonalLoop=1;jettySize=auto;html=1;exitX=1;exitY=0.5;exitDx=0;exitDy=0;entryX=0;entryY=0.5;entryDx=0;entryDy=0;shape=link;" edge="1" parent="1" source="aZyy6RtrpkrhqAiJ_Z7c-8" target="aZyy6RtrpkrhqAiJ_Z7c-1">
          <mxGeometry relative="1" as="geometry" />
        </mxCell>
        <mxCell id="aZyy6RtrpkrhqAiJ_Z7c-8" value="" style="rounded=0;whiteSpace=wrap;html=1;" vertex="1" parent="1">
          <mxGeometry x="80" y="160" width="200" height="160" as="geometry" />
        </mxCell>
        <mxCell id="aZyy6RtrpkrhqAiJ_Z7c-10" value="Trait" style="rounded=1;whiteSpace=wrap;html=1;" vertex="1" parent="1">
          <mxGeometry x="90" y="170" width="80" height="60" as="geometry" />
        </mxCell>
        <mxCell id="aZyy6RtrpkrhqAiJ_Z7c-11" value="Rate/Score" style="rounded=1;whiteSpace=wrap;html=1;" vertex="1" parent="1">
          <mxGeometry x="190" y="170" width="80" height="60" as="geometry" />
        </mxCell>
        <mxCell id="aZyy6RtrpkrhqAiJ_Z7c-9" value="" style="rounded=0;whiteSpace=wrap;html=1;" vertex="1" parent="1">
          <mxGeometry x="560" y="160" width="200" height="160" as="geometry" />
        </mxCell>
        <mxCell id="aZyy6RtrpkrhqAiJ_Z7c-12" value="Max. &lt;br&gt;capacity" style="rounded=1;whiteSpace=wrap;html=1;" vertex="1" parent="1">
          <mxGeometry x="90" y="250" width="80" height="60" as="geometry" />
        </mxCell>
        <mxCell id="aZyy6RtrpkrhqAiJ_Z7c-13" value="Custom&lt;br&gt;checks" style="rounded=1;whiteSpace=wrap;html=1;" vertex="1" parent="1">
          <mxGeometry x="190" y="250" width="80" height="60" as="geometry" />
        </mxCell>
        <mxCell id="aZyy6RtrpkrhqAiJ_Z7c-5" value="Token &lt;br&gt;drops" style="rounded=1;whiteSpace=wrap;html=1;" vertex="1" parent="1">
          <mxGeometry x="570" y="170" width="80" height="60" as="geometry" />
        </mxCell>
        <mxCell id="aZyy6RtrpkrhqAiJ_Z7c-14" value="Whitelisting" style="rounded=1;whiteSpace=wrap;html=1;" vertex="1" parent="1">
          <mxGeometry x="670" y="170" width="80" height="60" as="geometry" />
        </mxCell>
        <mxCell id="aZyy6RtrpkrhqAiJ_Z7c-15" value="Custom&lt;br&gt;logic" style="rounded=1;whiteSpace=wrap;html=1;" vertex="1" parent="1">
          <mxGeometry x="570" y="250" width="80" height="60" as="geometry" />
        </mxCell>
        <mxCell id="aZyy6RtrpkrhqAiJ_Z7c-16" value="" style="endArrow=classic;html=1;rounded=0;entryX=0;entryY=0.5;entryDx=0;entryDy=0;" edge="1" parent="1" target="aZyy6RtrpkrhqAiJ_Z7c-8">
          <mxGeometry width="50" height="50" relative="1" as="geometry">
            <mxPoint x="10" y="240" as="sourcePoint" />
            <mxPoint x="70" y="190" as="targetPoint" />
          </mxGeometry>
        </mxCell>
        <mxCell id="aZyy6RtrpkrhqAiJ_Z7c-25" style="edgeStyle=orthogonalEdgeStyle;rounded=0;orthogonalLoop=1;jettySize=auto;html=1;exitX=1;exitY=0.5;exitDx=0;exitDy=0;entryX=0.5;entryY=0;entryDx=0;entryDy=0;" edge="1" parent="1" source="aZyy6RtrpkrhqAiJ_Z7c-20" target="aZyy6RtrpkrhqAiJ_Z7c-9">
          <mxGeometry relative="1" as="geometry" />
        </mxCell>
        <mxCell id="aZyy6RtrpkrhqAiJ_Z7c-20" value="Finalization &lt;br&gt;listeners" style="rounded=0;whiteSpace=wrap;html=1;" vertex="1" parent="1">
          <mxGeometry x="480" y="80" width="80" height="60" as="geometry" />
        </mxCell>
        <mxCell id="aZyy6RtrpkrhqAiJ_Z7c-21" value="" style="endArrow=classic;html=1;rounded=0;entryX=0.5;entryY=0;entryDx=0;entryDy=0;" edge="1" parent="1" target="aZyy6RtrpkrhqAiJ_Z7c-20">
          <mxGeometry width="50" height="50" relative="1" as="geometry">
            <mxPoint x="520" y="40" as="sourcePoint" />
            <mxPoint x="520" y="60" as="targetPoint" />
          </mxGeometry>
        </mxCell>
        <mxCell id="aZyy6RtrpkrhqAiJ_Z7c-22" value="Outside services" style="text;html=1;strokeColor=none;fillColor=none;align=center;verticalAlign=middle;whiteSpace=wrap;rounded=0;" vertex="1" parent="1">
          <mxGeometry x="480" width="80" height="40" as="geometry" />
        </mxCell>
        <mxCell id="aZyy6RtrpkrhqAiJ_Z7c-26" value="Signed messages" style="rounded=1;whiteSpace=wrap;html=1;" vertex="1" parent="1">
          <mxGeometry x="200" y="330" width="80" height="60" as="geometry" />
        </mxCell>
        <mxCell id="aZyy6RtrpkrhqAiJ_Z7c-27" value="Try register" style="text;html=1;strokeColor=none;fillColor=none;align=center;verticalAlign=middle;whiteSpace=wrap;rounded=0;" vertex="1" parent="1">
          <mxGeometry x="10" y="200" width="60" height="40" as="geometry" />
        </mxCell>
        <mxCell id="aZyy6RtrpkrhqAiJ_Z7c-28" value="Registry" style="rounded=0;whiteSpace=wrap;html=1;" vertex="1" parent="1">
          <mxGeometry x="10" y="60" width="80" height="60" as="geometry" />
        </mxCell>
        <mxCell id="aZyy6RtrpkrhqAiJ_Z7c-30" value="" style="endArrow=none;html=1;rounded=0;entryX=0;entryY=1;entryDx=0;entryDy=0;" edge="1" parent="1" target="aZyy6RtrpkrhqAiJ_Z7c-28">
          <mxGeometry width="50" height="50" relative="1" as="geometry">
            <mxPoint x="10" y="240" as="sourcePoint" />
            <mxPoint x="40" y="120" as="targetPoint" />
          </mxGeometry>
        </mxCell>
      </root>
    </mxGraphModel>
  </diagram>
</mxfile>
